# xmcd
#
# Track frame offsets:
#	150
#	14730
#	32155
#	48505
#	61252
#	79302
#	93612
#	103372
#	114727
#	133750
#	154435
#	171560
#
# Disc length: 2513 seconds
# Revision: 0
# Processed by: cddbd v1.5.2PL0 Copyright (c) Steve Scherf et al.
# Submitted via: dBpowerAMP V12.0
#
DISCID=b509cf0c
DTITLE=Jim Hurst and Missy Raines - Synergy
DYEAR=2003
DGENRE=Country
TTITLE0=I Ain't Got the Blues
TTITLE1=Cold Hard Business
TTITLE2=Guidology
TTITLE3=God Is Working in the Dark
TTITLE4=The Longest Part
TTITLE5=Reverend Brimstone
TTITLE6=Automotive Breakdown
TTITLE7=Buzzed
TTITLE8=The Hero
TTITLE9=Old Blind Dog
TTITLE10=Mist of Memory
TTITLE11=Cincinnati at Night
EXTD=
EXTT0=
EXTT1=
EXTT2=
EXTT3=
EXTT4=
EXTT5=
EXTT6=
EXTT7=
EXTT8=
EXTT9=
EXTT10=
EXTT11=
PLAYORDER=
